<svg width="37" height="37" viewBox="0 0 37 37" fill="none" xmlns="http://www.w3.org/2000/svg">
<g clip-path="url(#clip0)">
<path d="M36.2291 19.2714L0.770857 19.2714C0.345357 19.2714 -3.01921e-08 18.926 -6.73904e-08 18.5005C-1.04589e-07 18.075 0.345357 17.7297 0.770857 17.7297L36.2292 17.7296C36.6547 17.7296 37.0001 18.075 37.0001 18.5005C37.0001 18.926 36.6546 19.2714 36.2291 19.2714Z" fill="white"/>
<path d="M36.7734 19.0449L24.44 31.3782C24.1394 31.6788 23.6507 31.6788 23.35 31.3782C23.0494 31.0775 23.0494 30.5888 23.35 30.2882L35.6834 17.9548C35.8345 17.8053 36.0318 17.7297 36.2292 17.7297C36.4265 17.7297 36.6238 17.8052 36.7734 17.9548C37.074 18.2555 37.074 18.7443 36.7734 19.0449Z" fill="white"/>
<path d="M36.7734 19.0448C36.4728 19.3454 35.984 19.3454 35.6834 19.0448L23.3501 6.71144C23.0495 6.41081 23.0495 5.92208 23.3501 5.62146C23.5012 5.47194 23.6985 5.39635 23.8959 5.39635C24.0932 5.39635 24.2905 5.47187 24.4401 5.62146L36.7734 17.9548C37.074 18.2554 37.074 18.7442 36.7734 19.0448Z" fill="white"/>
</g>
<defs>
<clipPath id="clip0">
<rect width="37" height="37" fill="white" transform="matrix(1 -8.74228e-08 -8.74228e-08 -1 0 37)"/>
</clipPath>
</defs>
</svg>
