<svg width="37" height="37" viewBox="0 0 37 37" fill="none" xmlns="http://www.w3.org/2000/svg">
<g clip-path="url(#clip0)">
<path d="M0.770857 19.2714L36.2291 19.2714C36.6546 19.2714 37 18.926 37 18.5005C37 18.075 36.6546 17.7297 36.2291 17.7297L0.770784 17.7296C0.345284 17.7296 -7.04673e-05 18.075 -7.05045e-05 18.5005C-7.05417e-05 18.926 0.345357 19.2714 0.770857 19.2714Z" fill="white"/>
<path d="M0.226613 19.0449L12.56 31.3782C12.8606 31.6788 13.3493 31.6788 13.65 31.3782C13.9506 31.0775 13.9506 30.5888 13.65 30.2882L1.3166 17.9548C1.16549 17.8053 0.968204 17.7297 0.770846 17.7297C0.573489 17.7297 0.376203 17.8052 0.226613 17.9548C-0.074012 18.2555 -0.0740121 18.7443 0.226613 19.0449Z" fill="white"/>
<path d="M0.226614 19.0448C0.527239 19.3454 1.01597 19.3454 1.3166 19.0448L13.6499 6.71144C13.9505 6.41081 13.9505 5.92208 13.6499 5.62146C13.4988 5.47194 13.3015 5.39635 13.1041 5.39635C12.9068 5.39635 12.7095 5.47187 12.5599 5.62146L0.226543 17.9548C-0.0740095 18.2554 -0.0740112 18.7442 0.226614 19.0448Z" fill="white"/>
</g>
<defs>
<clipPath id="clip0">
<rect width="37" height="37" fill="white" transform="translate(37 37) rotate(-180)"/>
</clipPath>
</defs>
</svg>
